# xmcd CD database file
#
# Track frame offsets:
#	150
#	16213
#	31584
#	48005
#	69216
#	86222
#	101726
#	129987
#	142945
#	158593
#	179962
#
# Disc length: 2679 seconds
#
# Revision: 1
# Processed by: cddbd v1.5.2PL0 Copyright (c) Steve Scherf et al.
# Submitted via: CDex 1.70beta2
#
DISCID=830a750b
DTITLE=ROBIN MCKELLE - MODERN ANTIQUE
DYEAR=2008
DGENRE=Jazz
TTITLE0=Abracadabra
TTITLE1=Comes Loves
TTITLE2=I Want To Be Loved
TTITLE3=Lover Man
TTITLE4=Cheek To Cheek
TTITLE5=Day By Day
TTITLE6=Save Your Love For Me
TTITLE7=Go To Hell
TTITLE8=Lullaby of Birdland
TTITLE9=Make Someone Happy
TTITLE10=Remember
EXTD=YEAR: 2008
EXTT0=
EXTT1=
EXTT2=
EXTT3=
EXTT4=
EXTT5=
EXTT6=
EXTT7=
EXTT8=
EXTT9=
EXTT10=
PLAYORDER=
